<svg width="36" height="42" viewBox="0 0 36 42" fill="none" xmlns="http://www.w3.org/2000/svg">
<path d="M21.6 33.25H14.4C13.9032 33.25 13.5 33.642 13.5 34.125C13.5 34.608 13.9032 35 14.4 35H21.6C22.0968 35 22.5 34.608 22.5 34.125C22.5 33.642 22.0968 33.25 21.6 33.25ZM21.6 36.75H14.4C13.9032 36.75 13.5 37.142 13.5 37.625C13.5 38.108 13.9032 38.5 14.4 38.5H21.6C22.0968 38.5 22.5 38.108 22.5 37.625C22.5 37.142 22.0968 36.75 21.6 36.75ZM22.05 40.25H13.95L16.0884 41.6185C16.3656 41.86 16.7724 42 17.1954 42H18.8064C19.2276 42 19.6362 41.86 19.9134 41.6185L22.05 40.25ZM28.8 16.1017C28.8 22.3475 23.0148 26.572 23.0148 31.5H12.9852C12.9852 26.572 7.2 22.3475 7.2 16.1017C7.2 9.5865 12.5964 6.00075 17.9946 6.00075C23.3964 6.00075 28.8 9.59 28.8 16.1017ZM36 14.8925V17.2935H31.4316C31.4676 16.9032 31.5 16.5095 31.5 16.1017C31.5 15.687 31.4694 15.2897 31.437 14.8942H36V14.8925ZM16.8336 3.42475V0H19.3014V3.437C18.8658 3.3985 18.4302 3.37575 17.9946 3.37575C17.6076 3.37575 17.2206 3.39325 16.8336 3.42475ZM10.0962 5.68925L8.2242 2.29425L10.3986 1.16025L12.2652 4.543C11.5128 4.85975 10.7856 5.24475 10.0962 5.68925ZM29.151 8.7255L32.6466 6.286L34.0848 8.23725L30.3876 10.815C30.0438 10.0625 29.6262 9.36775 29.151 8.7255ZM23.733 4.54475L25.6014 1.16025L27.7758 2.29425L25.902 5.691C25.2144 5.2465 24.4872 4.86325 23.733 4.54475ZM5.6106 10.815L1.9134 8.239L3.3516 6.28775L6.8472 8.7255C6.372 9.366 5.9562 10.0607 5.6106 10.815ZM30.2832 21.7052L34.5204 23.3748L33.5952 25.599L29.2302 23.8805C29.6082 23.1858 29.9646 22.4595 30.2832 21.7052ZM6.6888 23.7265L2.448 25.5815L1.4364 23.3923L5.6484 21.5512C5.9598 22.309 6.3162 23.03 6.6888 23.7265ZM4.5684 17.2935H0V14.8925H4.563C4.5306 15.288 4.5 15.687 4.5 16.1017C4.5 16.5095 4.5324 16.9032 4.5684 17.2935Z" fill="#DBC717"/>
</svg>
