<svg xmlns="http://www.w3.org/2000/svg" width="224.932" height="168.699" viewBox="0 0 224.932 168.699">
  <g id="web-shop" transform="translate(0 -33)" opacity="0.09">
    <path id="Caminho_22" data-name="Caminho 22" d="M210.445,33H15.273A15.251,15.251,0,0,0,0,47.99V186.929A14.967,14.967,0,0,0,15.273,201.7H210.445a14.378,14.378,0,0,0,14.487-14.771V47.99C224.932,39.584,218.728,33,210.445,33ZM51.313,41.541a5.49,5.49,0,1,1-5.49,5.49A5.5,5.5,0,0,1,51.313,41.541Zm-15.762,0a5.49,5.49,0,1,1-5.49,5.49A5.5,5.5,0,0,1,35.551,41.541Zm-15.762,0a5.49,5.49,0,1,1-5.49,5.49A5.5,5.5,0,0,1,19.789,41.541ZM211.3,187.641c0,.235.093.426-.142.426H13.632V61.543c0-.235.475-.426.71-.426H211.158c.235,0,.142.191.142.426v126.1ZM206.093,52.6H146.452a5.527,5.527,0,0,1,0-11.054l59.641.019a5.518,5.518,0,0,1,0,11.035Z"/>
    <g id="Grupo_9" data-name="Grupo 9" transform="translate(28.496 84.132)">
      <path id="Caminho_23" data-name="Caminho 23" d="M38.935,104.078H98.576a5.522,5.522,0,0,0,0-11.045l-59.641-.02a5.533,5.533,0,0,0,0,11.065Z" transform="translate(-33.445 -93.013)"/>
      <path id="Caminho_24" data-name="Caminho 24" d="M98.576,115.033l-59.641-.02a5.533,5.533,0,0,0,0,11.065H98.576a5.522,5.522,0,0,0,0-11.045Z" transform="translate(-33.445 -96.269)"/>
      <path id="Caminho_25" data-name="Caminho 25" d="M98.576,137.033l-59.641-.02a5.533,5.533,0,0,0,0,11.065H98.576a5.522,5.522,0,0,0,0-11.045Z" transform="translate(-33.445 -99.524)"/>
      <path id="Caminho_26" data-name="Caminho 26" d="M98.576,159.033l-59.641-.02a5.533,5.533,0,0,0,0,11.065H98.576a5.522,5.522,0,0,0,0-11.045Z" transform="translate(-33.445 -102.78)"/>
    </g>
    <path id="Caminho_27" data-name="Caminho 27" d="M205.983,91H142.934A10.908,10.908,0,0,0,132,101.65v63.475a10.471,10.471,0,0,0,10.508,10.224h63.475A10.423,10.423,0,0,0,216.35,164.7V101.65A10.423,10.423,0,0,0,205.983,91Z" transform="translate(-19.534 -8.583)"/>
  </g>
</svg>
