<svg xmlns="http://www.w3.org/2000/svg" width="26" height="26" viewBox="0 0 26 26">
  <g id="icon-gallery" transform="translate(-97 -293)">
    <circle id="Elipse_17" data-name="Elipse 17" cx="13" cy="13" r="13" transform="translate(97 293)" fill="#6fc174"/>
    <path id="iconmonstr-picture-7" d="M6.13,9.2a.613.613,0,1,1,.614.613A.613.613,0,0,1,6.13,9.2Zm3.8,0L8.889,10.789l-.8-.981L6.13,12.26h6.13ZM14.713,6.13v8.582H3.678V6.13ZM13.487,7.356H4.9v6.13h8.582ZM9.525,1.6,10.9,4.9h1.328L10.185,0,0,4.244l2.452,5.924V6.94L1.6,4.9,9.525,1.6Z" transform="translate(102 299)" fill="#fff"/>
  </g>
</svg>
