<svg xmlns="http://www.w3.org/2000/svg" width="26" height="26" viewBox="0 0 26 26">
  <g id="icon-video" transform="translate(-97 -582)">
    <circle id="Elipse_14" data-name="Elipse 14" cx="13" cy="13" r="13" transform="translate(97 582)" fill="#af3081"/>
    <path id="iconmonstr-audio-19" d="M12.8,0,4.222,1.924v7A2.675,2.675,0,0,0,1,11.149a1.72,1.72,0,0,0,1.87,1.728,2.383,2.383,0,0,0,2.423-2.489V4.54l6.439-1.319V7.848A2.673,2.673,0,0,0,8.512,10.07,1.741,1.741,0,0,0,10.4,11.8a2.371,2.371,0,0,0,2.4-2.488V0Z" transform="translate(103 589)" fill="#fff"/>
  </g>
</svg>
