<svg xmlns="http://www.w3.org/2000/svg" width="26" height="26" viewBox="0 0 26 26">
  <g id="icon-decorative" transform="translate(-97 -342)">
    <circle id="Elipse_13" data-name="Elipse 13" cx="13" cy="13" r="13" transform="translate(97 342)" fill="#b84123"/>
    <path id="iconmonstr-paintbrush-6" d="M2.2,11.994C4.717,12.2,3.815,9.525,6.146,9.5l1.01.843C7.408,13.386,3.687,14.064,2.2,11.994ZM9.924,8.085c.784-1.23,3.212-5.356,3.212-5.356a.355.355,0,0,0-.536-.447S8.99,5.422,7.925,6.416C7.083,7.2,7.079,7.562,6.807,8.86l.923.769C8.953,9.126,9.305,9.058,9.924,8.085ZM3.332,10.214A3.084,3.084,0,0,1,5.775,8.422a4.2,4.2,0,0,1,1.4-2.808c.754-.7,2.713-2.422,3.857-3.422C10.482.979,8.757-.018,6.539,0a6.592,6.592,0,0,0-4.99,10.837c.889.236,1.305.191,1.783-.623Zm3.819-8.7a1.1,1.1,0,1,1-1.09,1.107,1.1,1.1,0,0,1,1.09-1.107Zm-3.295,1.1a1.1,1.1,0,1,1-1.09,1.1,1.095,1.095,0,0,1,1.09-1.1Zm-1.1,3.3A1.1,1.1,0,1,1,1.668,7.016,1.1,1.1,0,0,1,2.757,5.909ZM8.267,10.6a3.569,3.569,0,0,1-.924,2.52l-.025.024c2.887-.325,4.978-2.364,3.442-4.334A4.316,4.316,0,0,1,8.267,10.6Z" transform="translate(103 349)" fill="#fff"/>
  </g>
</svg>
