<svg xmlns="http://www.w3.org/2000/svg" width="26" height="26" viewBox="0 0 26 26">
  <g id="icon-store" transform="translate(-97 -773)">
    <circle id="Elipse_16" data-name="Elipse 16" cx="13" cy="13" r="13" transform="translate(97 773)" fill="#5a499e"/>
    <path id="iconmonstr-shopping-cart-3" d="M6.743,14.126a1.011,1.011,0,1,1-1.011-1.011A1.011,1.011,0,0,1,6.743,14.126ZM9.1,13.114a1.011,1.011,0,1,0,1.011,1.011A1.011,1.011,0,0,0,9.1,13.114ZM10,9.743l1.333-4.72H0l1.981,4.72ZM13.354,3,11.04,11.091H2.546l.566,1.349h8.927l2.342-8.091h1.3L16.183,3Z" transform="translate(102 778)" fill="#fff"/>
  </g>
</svg>
