<svg width="26" height="26" viewBox="0 0 26 26" fill="none" xmlns="http://www.w3.org/2000/svg">
<path d="M13 26C20.1797 26 26 20.1797 26 13C26 5.8203 20.1797 0 13 0C5.8203 0 0 5.8203 0 13C0 20.1797 5.8203 26 13 26Z" fill="#B66FC1"/>
<path d="M17.97 8.3333C17.97 9.38037 17.1213 10.2292 16.0742 10.2292C15.0271 10.2292 14.1784 9.38037 14.1784 8.3333C14.1784 7.28633 15.0271 6.4375 16.0742 6.4375C17.1213 6.4375 17.97 7.28633 17.97 8.3333V8.3333Z" fill="white"/>
<path d="M16.0742 10.6667C14.7873 10.6667 13.7409 9.62016 13.7409 8.3333C13.7409 7.04654 14.7873 6 16.0742 6C17.3611 6 18.4075 7.04654 18.4075 8.3333C18.4075 9.62016 17.3611 10.6667 16.0742 10.6667ZM16.0742 6.875C15.2698 6.875 14.6159 7.52954 14.6159 8.3333C14.6159 9.13716 15.2698 9.7917 16.0742 9.7917C16.8786 9.7917 17.5325 9.13716 17.5325 8.3333C17.5325 7.52954 16.8786 6.875 16.0742 6.875Z" fill="white"/>
<path d="M17.97 17.6667C17.97 18.7136 17.1213 19.5625 16.0742 19.5625C15.0271 19.5625 14.1784 18.7136 14.1784 17.6667C14.1784 16.6196 15.0271 15.7708 16.0742 15.7708C17.1213 15.7708 17.97 16.6196 17.97 17.6667V17.6667Z" fill="white"/>
<path d="M16.0742 20C14.7873 20 13.7409 18.9534 13.7409 17.6667C13.7409 16.3798 14.7873 15.3333 16.0742 15.3333C17.3611 15.3333 18.4075 16.3798 18.4075 17.6667C18.4075 18.9534 17.3611 20 16.0742 20ZM16.0742 16.2083C15.2698 16.2083 14.6159 16.8628 14.6159 17.6667C14.6159 18.4704 15.2698 19.125 16.0742 19.125C16.8786 19.125 17.5325 18.4704 17.5325 17.6667C17.5325 16.8628 16.8786 16.2083 16.0742 16.2083V16.2083Z" fill="white"/>
<path d="M9.80342 13C9.80342 14.0471 8.95459 14.8958 7.90752 14.8958C6.86055 14.8958 6.01172 14.0471 6.01172 13C6.01172 11.953 6.86055 11.1042 7.90752 11.1042C8.95459 11.1042 9.80342 11.953 9.80342 13Z" fill="white"/>
<path d="M7.90752 15.3333C6.62076 15.3333 5.57422 14.2869 5.57422 13C5.57422 11.7132 6.62076 10.6667 7.90752 10.6667C9.19438 10.6667 10.2409 11.7132 10.2409 13C10.2409 14.2869 9.19438 15.3333 7.90752 15.3333ZM7.90752 11.5417C7.10312 11.5417 6.44922 12.1962 6.44922 13C6.44922 13.8039 7.10312 14.4583 7.90752 14.4583C8.71202 14.4583 9.36592 13.8039 9.36592 13C9.36592 12.1962 8.71202 11.5417 7.90752 11.5417Z" fill="white"/>
<path d="M9.28484 12.72C9.08179 12.72 8.88462 12.6144 8.77727 12.4255C8.61802 12.146 8.71607 11.7896 8.99549 11.6297L14.4082 8.54392C14.6876 8.38349 15.044 8.48154 15.2039 8.76203C15.3632 9.04145 15.2651 9.39788 14.9857 9.55778L9.57291 12.6436C9.48191 12.6955 9.38279 12.72 9.28484 12.72V12.72Z" fill="white"/>
<path d="M14.697 17.5327C14.5989 17.5327 14.4998 17.5081 14.4088 17.4562L8.99602 14.3704C8.7166 14.2112 8.61866 13.8547 8.77791 13.5747C8.93653 13.2947 9.29349 13.1961 9.57355 13.3566L14.9863 16.4423C15.2657 16.6016 15.3637 16.958 15.2044 17.2381C15.0966 17.427 14.8994 17.5327 14.697 17.5327V17.5327Z" fill="white"/>
</svg>
