<svg width="26" height="26" viewBox="0 0 26 26" fill="none" xmlns="http://www.w3.org/2000/svg">
<path d="M13 26C20.1797 26 26 20.1797 26 13C26 5.8203 20.1797 0 13 0C5.8203 0 0 5.8203 0 13C0 20.1797 5.8203 26 13 26Z" fill="#7FC16F"/>
<g clip-path="url(#clip0)">
<path d="M14.8993 13.7237C14.8993 13.5483 15.0415 13.4063 15.2171 13.4063L16.326 13.4063C16.5013 13.4063 16.6436 13.5483 16.6436 13.7237L16.6436 14.8325C16.6436 15.0081 16.5013 15.1502 16.326 15.1502L15.2171 15.1502C15.0415 15.1502 14.8993 15.0081 14.8993 14.8325L14.8993 13.7237Z" fill="white"/>
<path d="M12.128 13.7237C12.128 13.5483 12.2703 13.4063 12.4454 13.4063L13.5545 13.4063C13.7298 13.4063 13.8721 13.5483 13.8721 13.7237L13.8721 14.8325C13.8721 15.0081 13.7298 15.1502 13.5545 15.1502L12.4454 15.1502C12.2703 15.1502 12.128 15.0081 12.128 14.8325L12.128 13.7237Z" fill="white"/>
<path d="M9.35657 13.7237C9.35657 13.5483 9.49885 13.4063 9.67416 13.4063L10.7831 13.4063C10.9586 13.4063 11.1008 13.5483 11.1008 13.7237L11.1008 14.8325C11.1008 15.0081 10.9586 15.1502 10.7831 15.1502L9.67416 15.1502C9.49885 15.1502 9.35657 15.0081 9.35657 14.8325L9.35657 13.7237Z" fill="white"/>
<path d="M14.8993 16.4954C14.8993 16.3197 15.0415 16.1777 15.2171 16.1777L16.326 16.1777C16.5013 16.1777 16.6436 16.3197 16.6436 16.4954L16.6436 17.6039C16.6436 17.7794 16.5013 17.9215 16.326 17.9215L15.2171 17.9215C15.0415 17.9215 14.8993 17.7794 14.8993 17.6039L14.8993 16.4954Z" fill="white"/>
<path d="M12.128 16.4954C12.128 16.3197 12.2703 16.1777 12.4454 16.1777L13.5545 16.1777C13.7298 16.1777 13.8721 16.3197 13.8721 16.4954L13.8721 17.6039C13.8721 17.7794 13.7298 17.9215 13.5545 17.9215L12.4454 17.9215C12.2703 17.9215 12.128 17.7794 12.128 17.6039L12.128 16.4954Z" fill="white"/>
<path d="M9.35657 16.4954C9.35657 16.3197 9.49885 16.1777 9.67402 16.1777L10.7831 16.1777C10.9586 16.1777 11.1008 16.3197 11.1008 16.4954L11.1008 17.6039C11.1008 17.7794 10.9586 17.9215 10.7831 17.9215L9.67402 17.9215C9.49885 17.9215 9.35657 17.7794 9.35657 17.6039L9.35657 16.4954Z" fill="white"/>
<path d="M7.37373 7.55882L7.37373 9.25235C7.37373 10.0178 7.9947 10.6346 8.76004 10.6346L9.63457 10.6346C10.4 10.6346 11.0292 10.0178 11.0292 9.25235L11.0292 7.55274L14.9709 7.55273L14.9709 9.25234C14.9709 10.0178 15.6001 10.6346 16.3654 10.6346L17.2401 10.6346C18.0054 10.6346 18.6263 10.0178 18.6263 9.25234L18.6263 7.55881C19.2952 7.57898 19.8448 8.13246 19.8448 8.81277L19.8448 18.7377C19.8448 19.4308 19.2831 20 18.59 20L7.4101 20C6.71803 20 6.15522 19.4296 6.15522 18.7377L6.15522 8.81277C6.15522 8.13247 6.70483 7.57898 7.37373 7.55882ZM7.77992 18.1196C7.77992 18.4191 8.02278 18.6621 8.32242 18.6621L17.7015 18.6621C18.0012 18.6621 18.244 18.4191 18.244 18.1196L18.244 12.9931C18.244 12.6934 18.0012 12.4504 17.7015 12.4504L8.32245 12.4504C8.02281 12.4504 7.77995 12.6934 7.77995 12.9931L7.77992 18.1196Z" fill="white"/>
<path d="M17.2431 9.72677L16.3781 9.72677C16.1155 9.72677 15.9026 9.5142 15.9026 9.25163L15.9026 6.47531C15.9026 6.21272 16.1155 6 16.3781 6L17.2431 6C17.5057 6 17.7186 6.21272 17.7186 6.47531L17.7186 9.25163C17.7186 9.5142 17.5057 9.72677 17.2431 9.72677Z" fill="white"/>
<path d="M9.64567 9.72677L8.78064 9.72677C8.51825 9.72677 8.30536 9.5142 8.30536 9.25163L8.30536 6.47531C8.30533 6.21272 8.51822 6 8.78064 6L9.64567 6C9.90821 6 10.1211 6.21272 10.1211 6.47531L10.1211 9.25163C10.1211 9.5142 9.90821 9.72677 9.64567 9.72677Z" fill="white"/>
</g>
<defs>
<clipPath id="clip0">
<rect width="14" height="14" fill="white" transform="matrix(-1 8.74228e-08 8.74228e-08 1 20 6)"/>
</clipPath>
</defs>
</svg>
