<svg xmlns="http://www.w3.org/2000/svg" width="26" height="26" viewBox="0 0 26 26">
  <g id="icon-button" transform="translate(-97 -245)">
    <circle id="Elipse_12" data-name="Elipse 12" cx="13" cy="13" r="13" transform="translate(97 245)" fill="#9b9e49"/>
    <path id="iconmonstr-cursor-30" d="M3.057,5.592a3.341,3.341,0,0,1,1.559.932v-5.5a1.047,1.047,0,0,1,2.093,0v3.17c0,.41.426.463.481.054C7.3,3.407,8.508,3.3,8.6,4.455c.022.286.38.343.453.014.171-.756,1.309-.763,1.443.4.035.3.416.364.444.018s.147-.489.318-.489c.575,0,1.208,1.056,1.208,2.307,0,2.247-1.57,2.253-1.57,5.855H5.663C5.489,10.5,3.851,8.669,2.381,7.2A1.185,1.185,0,0,1,2,6.381.831.831,0,0,1,3.057,5.592Z" transform="translate(102.303 251.363)" fill="#fff"/>
  </g>
</svg>
