<svg width="26" height="26" viewBox="0 0 26 26" fill="none" xmlns="http://www.w3.org/2000/svg">
<path d="M13 26C20.1797 26 26 20.1797 26 13C26 5.8203 20.1797 0 13 0C5.8203 0 0 5.8203 0 13C0 20.1797 5.8203 26 13 26Z" fill="#ACC16F"/>
<path d="M8.02096 13.4736H9.10367C8.99331 13.7758 8.93302 14.1019 8.93302 14.4417V18.5337C8.93302 18.6754 8.95768 18.8114 9.00255 18.9379H7.2126C6.54396 18.9379 6.00001 18.3939 6.00001 17.7253V15.4946C5.99998 14.3802 6.90659 13.4736 8.02096 13.4736Z" fill="white"/>
<path d="M17.067 14.4417C17.067 14.1018 17.0067 13.7758 16.8963 13.4736H17.979C19.0934 13.4736 20 14.3802 20 15.4946V17.7253C20 18.394 19.456 18.9379 18.7874 18.9379H16.9974C17.0423 18.8114 17.067 18.6754 17.067 18.5337V14.4417V14.4417Z" fill="white"/>
<path d="M11.7624 12.4207H14.2376C15.352 12.4207 16.2586 13.3273 16.2586 14.4416V18.5336C16.2586 18.7568 16.0776 18.9378 15.8544 18.9378H10.1456C9.92237 18.9378 9.74141 18.7569 9.74141 18.5336V14.4416C9.74141 13.3273 10.648 12.4207 11.7624 12.4207Z" fill="white"/>
<path d="M13 7.06201C14.3402 7.06201 15.4305 8.15232 15.4305 9.49252C15.4305 10.4016 14.9287 11.1955 14.1878 11.6123C13.8363 11.81 13.4312 11.923 13 11.923C12.5688 11.923 12.1637 11.81 11.8122 11.6123C11.0712 11.1955 10.5695 10.4015 10.5695 9.49252C10.5695 8.15235 11.6598 7.06201 13 7.06201Z" fill="white"/>
<path d="M17.2679 9.32739C18.2701 9.32739 19.0855 10.1428 19.0855 11.1451C19.0855 12.1474 18.2701 12.9628 17.2679 12.9628C17.0136 12.9628 16.7715 12.9101 16.5516 12.8154C16.1713 12.6517 15.8578 12.3619 15.6638 11.9989C15.5276 11.7442 15.4502 11.4535 15.4502 11.1451C15.4502 10.1428 16.2656 9.32739 17.2679 9.32739Z" fill="white"/>
<path d="M8.73209 9.32739C9.73438 9.32739 10.5498 10.1428 10.5498 11.1451C10.5498 11.4536 10.4723 11.7442 10.3361 11.9989C10.1421 12.362 9.82861 12.6517 9.44837 12.8154C9.22844 12.9101 8.98634 12.9628 8.73209 12.9628C7.72981 12.9628 6.91441 12.1474 6.91441 11.1451C6.91441 10.1428 7.72981 9.32739 8.73209 9.32739Z" fill="white"/>
</svg>
